<svg width="14" height="14" viewBox="0 0 14 14" fill="none" xmlns="http://www.w3.org/2000/svg">
<path d="M7.35272 13.6033L8.04647 12.9095C8.34646 12.6127 8.34024 12.1283 8.03396 11.8377L4.26835 8.25018H13.2496C13.6652 8.25018 13.9996 7.9158 13.9996 7.50018V6.50018C13.9996 6.08457 13.6652 5.75019 13.2496 5.75019H4.26835L8.03396 2.1627C8.33709 1.87208 8.34335 1.38771 8.04647 1.09083L7.35272 0.397079C7.0621 0.103317 6.5871 0.103317 6.29337 0.397079L0.218368 6.47205C-0.0753935 6.7627 -0.0753935 7.23767 0.218368 7.53143L6.29337 13.6033C6.58398 13.897 7.05899 13.897 7.35272 13.6033Z" fill="white"/>
</svg>
