<svg width="24" height="24" viewBox="0 0 24 24" fill="none" xmlns="http://www.w3.org/2000/svg">
<g id="Icon ">
<circle id="Oval" opacity="0.15" cx="12" cy="12" r="12" fill="#1576D8"/>
<path id="Icon" d="M10.3989 15.8242L7.13721 12.582C7.04606 12.4909 7.00049 12.3737 7.00049 12.2305C7.00049 12.0872 7.04606 11.97 7.13721 11.8789L7.85986 11.1758C7.95101 11.0716 8.06494 11.0195 8.20166 11.0195C8.33838 11.0195 8.45882 11.0716 8.56298 11.1758L10.7505 13.3633L15.438 8.67578C15.5421 8.57161 15.6626 8.51953 15.7993 8.51953C15.936 8.51953 16.0499 8.57161 16.1411 8.67578L16.8637 9.3789C16.9549 9.47005 17.0005 9.58724 17.0005 9.73047C17.0005 9.87369 16.9549 9.99088 16.8637 10.082L11.102 15.8242C11.0109 15.9284 10.8937 15.9805 10.7505 15.9805C10.6073 15.9805 10.4901 15.9284 10.3989 15.8242Z" fill="#1576D8"/>
</g>
</svg>
